<svg width="8" height="8" viewBox="0 0 8 8" fill="none" xmlns="http://www.w3.org/2000/svg">
<path d="M2.52717 0.333252C2.34384 0.333252 2.2795 0.456252 2.38417 0.606918L4.66984 3.89292C4.72128 3.97493 4.74857 4.06978 4.74857 4.16659C4.74857 4.26339 4.72128 4.35824 4.66984 4.44025L2.3835 7.72625C2.27884 7.87692 2.34317 7.99992 2.52717 7.99992H3.02717C3.1289 7.99415 3.22822 7.96676 3.31852 7.91956C3.40882 7.87237 3.48802 7.80647 3.55084 7.72625L5.83651 4.44025C5.88795 4.35824 5.91523 4.26339 5.91523 4.16659C5.91523 4.06978 5.88795 3.97493 5.8365 3.89292L3.55084 0.606918C3.48802 0.526699 3.40882 0.460797 3.31852 0.413607C3.22822 0.366416 3.1289 0.339022 3.02717 0.333252L2.52717 0.333252Z" fill="#FBE331"/>
</svg>
