<svg width="8" height="8" viewBox="0 0 8 8" fill="none" xmlns="http://www.w3.org/2000/svg">
<g clip-path="url(#clip0_5318_19321)">
<path d="M5.47313 0.333252C5.65647 0.333252 5.7208 0.456252 5.61613 0.606918L3.33047 3.89292C3.27902 3.97493 3.25174 4.06978 3.25174 4.16659C3.25174 4.26339 3.27902 4.35824 3.33047 4.44025L5.6168 7.72625C5.72147 7.87692 5.65713 7.99992 5.47313 7.99992H4.97313C4.87141 7.99415 4.77208 7.96675 4.68178 7.91956C4.59148 7.87237 4.51228 7.80647 4.44947 7.72625L2.1638 4.44025C2.11236 4.35824 2.08507 4.26339 2.08507 4.16659C2.08507 4.06978 2.11236 3.97493 2.1638 3.89292L4.44947 0.606918C4.51228 0.526699 4.59148 0.460797 4.68178 0.413607C4.77209 0.366416 4.87141 0.339022 4.97313 0.333252L5.47313 0.333252Z" fill="#FBE331"/>
</g>
<defs>
<clipPath id="clip0_5318_19321">
<rect width="8" height="8" fill="white" transform="matrix(-1 0 0 1 8 0)"/>
</clipPath>
</defs>
</svg>
