<svg width="32" height="32" viewBox="0 0 32 32" fill="none" xmlns="http://www.w3.org/2000/svg">
<path d="M30.0713 30.108C30.1589 30.2297 30.2085 30.3747 30.2137 30.5246C30.2189 30.6745 30.1796 30.8226 30.1007 30.9502C30.0218 31.0778 29.9068 31.1791 29.7704 31.2413C29.6339 31.3036 29.482 31.324 29.334 31.3H2.66731C2.51924 31.324 2.36738 31.3036 2.23091 31.2413C2.09443 31.1791 1.97948 31.0778 1.90057 30.9502C1.82166 30.8226 1.78234 30.6745 1.78757 30.5246C1.79281 30.3747 1.84236 30.2297 1.92998 30.108L15.4046 3.15997C15.7326 2.50397 16.2686 2.50397 16.5966 3.15997L30.0713 30.108Z" stroke="white" stroke-linecap="round" stroke-linejoin="round"/>
<path d="M16 22.6388V13.3054" stroke="#EFB138" stroke-linecap="round" stroke-linejoin="round"/>
<path d="M15.9876 25.3054C15.944 25.3063 15.9011 25.3158 15.8613 25.3334C15.8215 25.351 15.7855 25.3764 15.7556 25.4081C15.7257 25.4397 15.7024 25.477 15.6871 25.5178C15.6717 25.5585 15.6646 25.6019 15.6662 25.6454C15.6697 25.733 15.7068 25.8159 15.7699 25.8768C15.833 25.9377 15.9172 25.9718 16.0049 25.9721H16.0116C16.0551 25.9712 16.098 25.9617 16.1379 25.9441C16.1777 25.9265 16.2136 25.9011 16.2435 25.8694C16.2734 25.8378 16.2967 25.8005 16.3121 25.7598C16.3274 25.719 16.3345 25.6756 16.3329 25.6321C16.3295 25.5454 16.2931 25.4633 16.2311 25.4025C16.1692 25.3418 16.0863 25.3071 15.9996 25.3054H15.9929" stroke="#EFB138" stroke-linecap="round" stroke-linejoin="round"/>
</svg>
