<svg width="32" height="32" viewBox="0 0 32 32" fill="none" xmlns="http://www.w3.org/2000/svg">
<g clip-path="url(#clip0_2545_10250)">
<path d="M16.0007 30.6681C24.1008 30.6681 30.6673 24.1016 30.6673 16.0014C30.6673 7.90121 24.1008 1.33472 16.0007 1.33472C7.90047 1.33472 1.33398 7.90121 1.33398 16.0014C1.33398 24.1016 7.90047 30.6681 16.0007 30.6681Z" stroke="white" stroke-linecap="round" stroke-linejoin="round"/>
<path d="M19.334 22.6733H17.334C16.9804 22.6733 16.6412 22.5328 16.3912 22.2827C16.1411 22.0327 16.0007 21.6935 16.0007 21.3399V12.6733C16.0007 12.4964 15.9304 12.3269 15.8054 12.2019C15.6804 12.0768 15.5108 12.0066 15.334 12.0066H13.334" stroke="#D93337" stroke-linecap="round" stroke-linejoin="round"/>
<path d="M15.6595 8.66675C15.5936 8.66675 15.5291 8.6863 15.4743 8.72292C15.4195 8.75955 15.3768 8.81161 15.3515 8.87252C15.3263 8.93343 15.3197 9.00045 15.3326 9.06511C15.3454 9.12977 15.3772 9.18917 15.4238 9.23578C15.4704 9.2824 15.5298 9.31415 15.5945 9.32701C15.6591 9.33987 15.7262 9.33327 15.7871 9.30804C15.848 9.28281 15.9 9.24009 15.9367 9.18527C15.9733 9.13046 15.9928 9.06601 15.9928 9.00008C15.9928 8.91168 15.9577 8.82689 15.8952 8.76438C15.8327 8.70187 15.7479 8.66675 15.6595 8.66675Z" stroke="#D93337" stroke-linecap="round" stroke-linejoin="round"/>
</g>
<defs>
<clipPath id="clip0_2545_10250">
<rect width="32" height="32" fill="white"/>
</clipPath>
</defs>
</svg>
